<?xml version="1.0" encoding="UTF-8" standalone="no"?>
<!-- Created with Inkscape (http://www.inkscape.org/) -->

<svg
   xmlns:dc="http://purl.org/dc/elements/1.1/"
   xmlns:cc="http://creativecommons.org/ns#"
   xmlns:rdf="http://www.w3.org/1999/02/22-rdf-syntax-ns#"
   xmlns:svg="http://www.w3.org/2000/svg"
   xmlns="http://www.w3.org/2000/svg"
   xmlns:sodipodi="http://sodipodi.sourceforge.net/DTD/sodipodi-0.dtd"
   xmlns:inkscape="http://www.inkscape.org/namespaces/inkscape"
   width="96"
   height="96"
   id="svg6630"
   version="1.1"
   inkscape:version="0.48.4 r9939"
   sodipodi:docname="New document 3">
  <defs
     id="defs6632" />
  <sodipodi:namedview
     id="base"
     pagecolor="#ffffff"
     bordercolor="#666666"
     borderopacity="1.0"
     inkscape:pageopacity="0.0"
     inkscape:pageshadow="2"
     inkscape:zoom="4.328125"
     inkscape:cx="18.380225"
     inkscape:cy="62.840681"
     inkscape:document-units="px"
     inkscape:current-layer="layer1"
     showgrid="false"
     inkscape:window-width="1920"
     inkscape:window-height="1018"
     inkscape:window-x="-8"
     inkscape:window-y="-8"
     inkscape:window-maximized="1" />
  <metadata
     id="metadata6635">
    <rdf:RDF>
      <cc:Work
         rdf:about="">
        <dc:format>image/svg+xml</dc:format>
        <dc:type
           rdf:resource="http://purl.org/dc/dcmitype/StillImage" />
        <dc:title></dc:title>
      </cc:Work>
    </rdf:RDF>
  </metadata>
  <g
     inkscape:label="Layer 1"
     inkscape:groupmode="layer"
     id="layer1"
     transform="translate(0,-956.36218)">
    <rect
       style="fill:#646478;fill-opacity:1;fill-rule:nonzero;stroke:#000000;stroke-width:2;stroke-linecap:round;stroke-linejoin:round;stroke-miterlimit:4;stroke-opacity:1;stroke-dasharray:none"
       id="rect8423-52-21-6-7"
       width="94"
       height="94"
       x="1"
       y="957.36218"
       ry="10" />
    <g
       transform="translate(-1.7179903,93.997068)"
       id="g7544">
      <g
         transform="matrix(2.0196117,0.19951056,-0.16036878,1.5544325,196.92542,-686.32304)"
         id="g4146">
        <path
           style="fill:#c3c3c8;fill-opacity:1;stroke:#000000;stroke-width:1px;stroke-linecap:round;stroke-linejoin:round;stroke-opacity:1;marker-start:none"
           d="m 23,1020.3622 c 0.0011,-5.4737 0.315513,-11.3272 -0.588448,-16.7509 -0.226926,-1.3616 1.521313,-8.95284 1.925391,-8.54876 2.14268,2.14268 0.782686,21.47146 0.663057,25.29966"
           id="path3954"
           inkscape:connector-curvature="0" />
        <path
           style="fill:#ffc800;fill-opacity:1;stroke:#000000;stroke-width:1px;stroke-linecap:round;stroke-linejoin:round;stroke-opacity:1"
           d="m 27,32 c -0.98663,0.785568 -5.836064,-0.931963 -6.282792,-0.03851 -0.359589,0.71918 0.110926,2.310469 -0.693141,2.310469 -0.904364,0 2.056066,-0.947544 2.695548,-0.308062 1.852865,1.852865 -2.246603,5.699158 1.386282,5.699158 0.196485,0 1.455833,0.161495 1.540312,0.07701 C 26.253431,39.132844 24.204308,35.174746 25.030084,34.34897 26.09999,33.279071 28.504955,35.469636 27,32"
           id="path3956"
           inkscape:connector-curvature="0"
           transform="translate(0,988.36218)" />
        <path
           style="fill:none;stroke:#000000;stroke-width:0.5;stroke-linecap:round;stroke-linejoin:round;stroke-miterlimit:4;stroke-opacity:1;stroke-dasharray:none"
           d="m 23.691937,1019.3622 c 0.905827,-3.7427 0.738085,-13.2028 0,-17"
           id="path4144"
           inkscape:connector-curvature="0" />
      </g>
      <path
         inkscape:connector-curvature="0"
         id="path7533-1-4"
         d="m 44.162007,947.03932 c -9.525048,9.6626 21.338935,10.9631 6.814431,2.6641 -2.218764,-1.2678 -4.651125,-2.9796 -7.531739,-3.2788"
         style="fill:#643200;fill-opacity:1;fill-rule:nonzero;stroke:#000000;stroke-width:2.34675789;stroke-linecap:round;stroke-linejoin:round;stroke-miterlimit:4;stroke-opacity:1;stroke-dasharray:none;display:inline" />
      <path
         inkscape:connector-curvature="0"
         id="path7533-9"
         d="m 30.084416,946.98072 c -9.525048,9.6626 21.338934,10.9631 6.814431,2.6641 -2.218764,-1.2678 -4.651125,-2.9796 -7.531739,-3.2789"
         style="fill:#643200;fill-opacity:1;fill-rule:nonzero;stroke:#000000;stroke-width:2.34675789;stroke-linecap:round;stroke-linejoin:round;stroke-miterlimit:4;stroke-opacity:1;stroke-dasharray:none;display:inline" />
      <path
         sodipodi:nodetypes="cssssssc"
         inkscape:connector-curvature="0"
         id="path7453-8"
         d="m 53.281161,886.05211 c -4.222425,6.79333 -20.368459,-0.84826 -24.375452,1.15523 -1.018114,0.50906 -1.501805,8.89058 -1.501805,10.28159 0,5.71421 -2.852379,50.67069 -2.541516,51.29239 0.260199,0.5204 12.118812,-0.4621 14.440433,-0.4621 4.015113,0 13.526289,2.8418 16.080983,0.2871 2.342935,-2.3429 -1.062932,-32.1884 -1.062932,-36.5614 0,-9.96269 -0.905181,-17.92814 -1.617329,-25.76177"
         style="fill:#c83232;fill-opacity:1;stroke:#000000;stroke-width:2;stroke-linecap:round;stroke-linejoin:round;stroke-miterlimit:4;stroke-opacity:1;stroke-dasharray:none;display:inline" />
      <path
         inkscape:connector-curvature="0"
         id="path7503-24"
         d="m 54.915017,893.36019 c -1.226298,1.73952 -1.609114,3.65648 -1.80756,6.15989 -0.174807,2.20521 -0.145201,3.6809 -0.321993,5.91118 -0.547878,6.91159 5.362844,10.3045 6.346406,5.92673 1.058674,-4.7121 4.321513,-20.55626 -4.360082,-16.65324"
         style="fill:#969696;fill-opacity:1;stroke:#000000;stroke-width:2;stroke-linecap:round;stroke-linejoin:round;stroke-miterlimit:4;stroke-opacity:1;stroke-dasharray:none;display:inline" />
      <path
         inkscape:connector-curvature="0"
         id="path7503-2-5"
         d="m 25.617909,893.93839 c 0.944141,1.90744 1.027546,3.86047 0.838569,6.36461 -0.166468,2.20586 -0.422707,3.65944 -0.591066,5.89036 -0.521744,6.91356 -6.884012,9.35696 -7.1825,4.88006 -0.321285,-4.81889 -1.108231,-20.97637 6.869709,-15.78444"
         style="fill:#969696;fill-opacity:1;stroke:#000000;stroke-width:2;stroke-linecap:round;stroke-linejoin:round;stroke-miterlimit:4;stroke-opacity:1;stroke-dasharray:none;display:inline" />
      <path
         inkscape:connector-curvature="0"
         id="path7455-2"
         d="m 31.793796,885.82106 c 0.589853,2.5294 -0.569187,4.02646 -1.501805,5.8917 -1.792689,3.58538 -17.489344,7.59962 -14.67148,1.9639 1.877094,-3.75419 13.860851,-14.7929 16.635379,-6.46932"
         style="fill:#969696;fill-opacity:1;stroke:#000000;stroke-width:2;stroke-linecap:round;stroke-linejoin:round;stroke-miterlimit:4;stroke-opacity:1;stroke-dasharray:none;display:inline" />
      <path
         inkscape:connector-curvature="0"
         id="path7455-8-9"
         d="m 50.3398,886.2823 c -0.589853,2.5294 0.569187,4.02646 1.501805,5.8917 1.792689,3.58538 17.489344,7.59962 14.67148,1.9639 -1.877094,-3.75419 -13.860851,-14.7929 -16.635379,-6.46932"
         style="fill:#969696;fill-opacity:1;stroke:#000000;stroke-width:2;stroke-linecap:round;stroke-linejoin:round;stroke-miterlimit:4;stroke-opacity:1;stroke-dasharray:none;display:inline" />
      <path
         inkscape:connector-curvature="0"
         id="path7523-9"
         d="m 27.433585,914.66122 c 8.604069,-0.851 18.3947,0.3267 26.956851,0.3267"
         style="fill:#969696;fill-opacity:1;fill-rule:nonzero;stroke:#000000;stroke-width:2;stroke-linecap:round;stroke-linejoin:round;stroke-miterlimit:4;stroke-opacity:1;stroke-dasharray:none;display:inline" />
      <path
         inkscape:connector-curvature="0"
         id="path7525-8"
         d="m 55.20731,921.84972 c -8.125309,0.094 -22.535847,-0.9812 -27.9371,-0.4901"
         style="fill:#969696;fill-opacity:1;fill-rule:nonzero;stroke:#000000;stroke-width:2;stroke-linecap:round;stroke-linejoin:round;stroke-miterlimit:4;stroke-opacity:1;stroke-dasharray:none;display:inline" />
      <path
         inkscape:connector-curvature="0"
         id="path7527-3"
         d="m 39.0332,912.53732 c -14.337772,11.4434 12.522124,16.5488 6.044869,3.5943 -1.403628,-2.8073 -2.960974,-3.3139 -6.044869,-3.5943 z"
         style="fill:#daa520;fill-opacity:1;fill-rule:nonzero;stroke:#000000;stroke-width:2;stroke-linecap:round;stroke-linejoin:round;stroke-miterlimit:4;stroke-opacity:1;stroke-dasharray:none;display:inline" />
      <path
         inkscape:connector-curvature="0"
         id="path7529-8"
         d="m 27.489592,918.02092 c 0.06521,-1.1906 0.143413,-2.1906 0.173778,-2.2223 0.11217,-0.1168 3.48302,-0.3369 5.26624,-0.3438 l 1.84072,-0.01 -0.396573,0.7826 c -0.487541,0.9622 -0.783494,2.479 -0.64845,3.3235 l 0.10103,0.6318 -3.227656,0 -3.227656,0 0.118567,-2.1647 z"
         style="fill:#643200;fill-opacity:1;fill-rule:nonzero;stroke:#000000;stroke-width:0.32674971;stroke-linecap:round;stroke-linejoin:round;stroke-miterlimit:4;stroke-opacity:1;stroke-dasharray:none;display:inline" />
      <path
         inkscape:connector-curvature="0"
         id="path7481-2"
         d="m 76.987608,909.3459 c 3.648702,-7.93604 15.145841,8.1099 -0.231047,5.3141"
         style="fill:#969696;fill-opacity:1;stroke:#000000;stroke-width:2;stroke-linecap:round;stroke-linejoin:round;stroke-miterlimit:4;stroke-opacity:1;stroke-dasharray:none;display:inline" />
      <path
         inkscape:connector-curvature="0"
         id="path7479-6"
         d="m 66.482079,910.6686 c 17.342836,-4.32369 13.129221,10.75761 -4.743404,3.34638"
         style="fill:#969696;fill-opacity:1;stroke:#000000;stroke-width:2;stroke-linecap:round;stroke-linejoin:round;stroke-miterlimit:4;stroke-opacity:1;stroke-dasharray:none;display:inline" />
      <path
         inkscape:connector-curvature="0"
         id="path7477-9"
         d="m 60.052946,907.66037 c -10.210936,13.7203 12.187468,4.9963 3.35018,0.5776 -1.577625,-0.7888 -2.787069,-0.2238 -3.465704,0.1155"
         style="fill:#969696;fill-opacity:1;stroke:#000000;stroke-width:2;stroke-linecap:round;stroke-linejoin:round;stroke-miterlimit:4;stroke-opacity:1;stroke-dasharray:none;display:inline" />
      <g
         transform="matrix(1.7129072,0,0,1.5815379,56.386561,-682.82653)"
         id="g6980">
        <path
           style="fill:#ff0000;fill-opacity:1;stroke:#000000;stroke-width:2;stroke-linecap:round;stroke-linejoin:round;stroke-miterlimit:4;stroke-opacity:1;stroke-dasharray:none"
           d="m -25.342132,1001.7634 c 0.460013,3.061 -0.319656,6.6615 -0.676294,9.8712 -0.286077,2.5747 0.01391,5.2649 1.155235,7.5475 12.338491,24.677 22.953629,-14.3219 18.714801,-18.5607 -0.367565,-0.3676 -0.844328,0.6147 -1.309265,0.8471 -1.11573,0.5579 -2.563622,0.4511 -3.773767,0.6932 -4.38368,0.8767 -9.773792,0.3725 -14.11071,-0.3983 z"
           id="path4171"
           inkscape:connector-curvature="0" />
        <path
           style="fill:#ff9600;fill-opacity:1;fill-rule:nonzero;stroke:#000000;stroke-width:0.5;stroke-linecap:round;stroke-linejoin:round;stroke-miterlimit:4;stroke-opacity:1;stroke-dasharray:none"
           d="m -14.965477,1022.3723 c 2.02799,0.9197 5.365094,-3.7019 4.427196,-5.5777 -0.403408,-0.8068 -1.423889,-2.1976 -1.078219,-3.2346 0.902767,-2.7083 4.875559,-6.2147 2.079422,-9.0108 -0.197101,-0.1971 -0.79591,1.6688 -0.924188,1.9253 -0.414589,0.8292 -1.591888,2.2978 -2.233453,2.6186 -2.142867,1.0714 0.20881,-5.1434 -1.617329,-3.7738 -0.532343,0.3993 -0.305167,1.2279 -0.616125,1.6944 -0.211069,0.3166 -0.48424,1.0676 -0.616125,1.4633 -0.15139,0.4541 -1.007012,0.9358 -1.232252,1.3862 -0.211557,0.4232 -0.04539,1.1463 -0.308061,1.5404 -0.852693,1.279 -1.514911,-0.7948 -1.309267,-1.6174 0.226183,-0.9047 1.000602,-2.3129 0.770156,-3.2346 -0.174308,-0.6973 -0.690661,-1.5379 -1.155234,-2.0024 -0.542503,-0.5425 -0.437486,2.058 -0.462094,2.1564 -0.438734,1.7549 -1.77136,2.8288 -1.77136,4.852 0,0.8874 0.345955,3.0225 -0.924188,2.3875 -0.437857,-0.219 -0.270312,-5.3896 -0.847172,-4.2359 -0.612306,1.2246 -1.507578,7.6737 -0.770156,8.7798 0.522641,0.784 1.567396,1.5674 2.233453,2.2334 0.957179,0.9572 2.554749,1.8165 3.696751,2.3875 0.760845,0.3805 2.976064,-0.4824 2.658245,-0.7376"
           id="path4197"
           inkscape:connector-curvature="0"
           sodipodi:nodetypes="cssscccccccccccscscccc" />
        <path
           style="fill:#646e6e;fill-opacity:0;fill-rule:nonzero;stroke:none"
           d="m -17.1291,1026.7143 c -1.173237,-0.2052 -2.182111,-0.8155 -3.413513,-2.0649 -1.349257,-1.369 -2.49881,-3.0742 -3.721983,-5.521 -0.905568,-1.8115 -1.203419,-3.0685 -1.258209,-5.3098 -0.03606,-1.4751 -0.0241,-1.6446 0.282521,-4.0048 0.478239,-3.6812 0.536933,-4.3301 0.537921,-5.947 7.03e-4,-1.1507 0.02234,-1.4726 0.09717,-1.4461 0.126905,0.045 2.057227,0.32 2.984356,0.4252 2.558575,0.2905 5.636173,0.3837 7.495772,0.2271 0.515593,-0.043 1.665239,-0.1811 2.55477,-0.3058 0.889531,-0.1248 2.02686,-0.281 2.527399,-0.3472 1.171297,-0.155 1.830983,-0.4004 2.290625,-0.8521 0.193114,-0.1898 0.37812,-0.3183 0.411123,-0.2855 0.109202,0.1086 0.285242,0.5916 0.400638,1.0994 0.188732,0.8305 0.224755,3.0713 0.07305,4.5439 -0.46841,4.5468 -1.919307,9.6041 -3.858798,13.4504 -1.476849,2.9288 -3.230852,5.0383 -4.890177,5.8812 -0.816443,0.4148 -1.766465,0.5876 -2.512665,0.457 l 0,0 z"
           id="path4203"
           inkscape:connector-curvature="0" />
        <path
           style="fill:#ffff00;fill-opacity:1;stroke:#000000;stroke-width:0.5;stroke-linecap:round;stroke-linejoin:round;stroke-miterlimit:4;stroke-opacity:1;stroke-dasharray:none"
           d="m -19.710363,1019.6226 c 0.699346,1.7899 4.393567,3.0288 6.01444,1.4079 0.443149,-0.4431 0.367411,-1.5226 0.847173,-2.0024 1.063417,-1.0634 -1.335114,-4.1071 -0.616126,-5.5451 0.132791,-0.2656 1.582128,-2.7308 1.540313,-2.7726 -0.393719,-0.3937 -1.750498,1.4842 -2.233453,1.0012 -0.331166,-0.3312 0.155319,-1.693 0,-1.8484 -0.459195,-0.4592 -1.521508,3.524 -1.77136,3.7738 -0.719702,0.7197 -2.565035,-0.5091 -2.772564,-0.9242 -0.07252,-0.145 -0.37327,-1.167 -0.462093,-1.0782 -0.844645,0.8446 -0.220343,2.8389 -1.001204,3.6197 -0.976987,0.977 -1.327898,-0.7142 -1.694344,0.3851 -0.735857,2.2076 0.693276,3.2348 1.694344,4.2359 0.12265,0.1226 0.332225,-0.3754 0.454874,-0.2527 1.15794,1.1579 -0.964985,0.057 -0.146811,0.3297 0.332626,0.1109 2.109859,1.0323 1.146811,0.6703"
           id="path5639"
           inkscape:connector-curvature="0" />
      </g>
      <g
         transform="matrix(1.4200429,0,0,1.4086945,22.316815,-529.09736)"
         id="g7014">
        <path
           style="fill:none;stroke:#000000;stroke-width:2;stroke-linecap:round;stroke-linejoin:round;stroke-miterlimit:4;stroke-opacity:1;stroke-dasharray:none"
           d="m 19.708172,1004.1572 c -0.728954,-3.0549 -0.463913,-9.45983 0,-10.99993"
           id="path5834"
           inkscape:connector-curvature="0" />
        <path
           style="fill:none;stroke:#000000;stroke-width:2;stroke-linecap:round;stroke-linejoin:round;stroke-miterlimit:4;stroke-opacity:1;stroke-dasharray:none"
           d="m 15.708172,991.15727 c -2.004953,-0.3655 -4.506085,-0.3761 -6.356197,0.2406 -0.669502,0.2232 -0.794998,1.0261 -1.155235,1.3863 -4.731095,4.7311 22.839832,-0.5744 6.511432,-1.6269"
           id="path5830"
           inkscape:connector-curvature="0" />
        <path
           style="fill:none;stroke:#000000;stroke-width:2;stroke-linecap:round;stroke-linejoin:round;stroke-miterlimit:4;stroke-opacity:1;stroke-dasharray:none"
           d="m 7.708172,994.15727 c -0.389372,3.703 0.257916,7.61103 0,10.99993 3.851991,3.3289 9.09164,1.6621 12,-1"
           id="path5832"
           inkscape:connector-curvature="0" />
        <path
           style="fill:none;stroke:#000000;stroke-width:2;stroke-linecap:round;stroke-linejoin:round;stroke-miterlimit:4;stroke-opacity:1;stroke-dasharray:none"
           d="m 16.711782,1005.4641 c -0.202346,-1.8645 -0.53836,-5.84838 0,-7.99998"
           id="path5836"
           inkscape:connector-curvature="0" />
        <path
           style="fill:none;stroke:#000000;stroke-width:2;stroke-linecap:round;stroke-linejoin:round;stroke-miterlimit:4;stroke-opacity:1;stroke-dasharray:none"
           d="m 19.378164,996.56833 c -1.065403,0.58644 -5.192047,1.34562 -6.839941,1.48836"
           id="path5838"
           inkscape:connector-curvature="0" />
        <path
           style="fill:#9696a0;fill-opacity:1;fill-rule:nonzero;stroke:none"
           d="m 8.974598,994.04103 c -0.458493,-0.10112 -0.770156,-0.2438 -0.770156,-0.35256 0,-0.0376 0.09531,-0.18067 0.211793,-0.31788 0.116486,-0.13721 0.385078,-0.51171 0.596871,-0.83221 0.341261,-0.51642 0.424513,-0.59435 0.731648,-0.6848 0.811969,-0.23913 1.504845,-0.33285 2.785694,-0.3768 1.156,-0.0397 1.420715,-0.0271 1.758154,0.0832 0.218489,0.0715 0.784421,0.16322 1.257629,0.20391 1.927749,0.16575 3.671448,0.49063 3.671448,0.68405 0,0.22424 -2.336976,0.93638 -4.158845,1.26732 -2.231755,0.40539 -5.041113,0.55579 -6.084236,0.32573 l 0,0 z"
           id="path6348"
           inkscape:connector-curvature="0" />
        <path
           style="fill:#9696a0;fill-opacity:1;fill-rule:nonzero;stroke:none"
           d="m 11.247491,1006.2905 c -0.839087,-0.1668 -1.74663,-0.5518 -2.493709,-1.0576 -0.451365,-0.3057 -0.50297,-0.3809 -0.44844,-0.6535 0.03389,-0.1695 -2.99e-4,-2.2127 -0.07598,-4.5404 -0.07568,-2.32781 -0.103551,-4.41384 -0.06194,-4.63566 0.06633,-0.35359 0.105016,-0.39386 0.313748,-0.32661 0.464538,0.14967 3.14027,0.18615 4.402672,0.06 1.55249,-0.1551 4.142633,-0.66304 5.254362,-1.03041 0.447997,-0.14804 0.822173,-0.25994 0.831502,-0.24868 0.0093,0.0113 -0.03863,0.55517 -0.106582,1.20867 l -0.123544,1.18819 -0.707957,0.2003 c -1.016494,0.28759 -3.175389,0.72239 -4.533426,0.91302 -0.642621,0.0902 -1.233334,0.21791 -1.312694,0.28377 -0.225769,0.18737 -0.178739,0.72048 0.07557,0.85658 0.233304,0.12486 1.192884,0.0318 2.869067,-0.27835 0.470875,-0.0871 0.864267,-0.1584 0.874205,-0.1584 0.0099,0 -0.02819,0.47787 -0.08472,1.06193 -0.09545,0.98615 0.05804,5.19685 0.226324,6.20865 0.05463,0.3285 0.0282,0.3672 -0.361922,0.5308 -0.659704,0.2767 -2.310817,0.5832 -3.089309,0.5736 -0.389377,0 -1.040628,-0.075 -1.447224,-0.1559 l 0,0 z"
           id="path6384"
           inkscape:connector-curvature="0" />
        <path
           style="fill:#9696a0;fill-opacity:1;fill-rule:nonzero;stroke:none"
           d="m 17.21651,1004.906 c -0.246619,-1.0631 -0.238909,-6.81925 0.0094,-7.04301 0.05375,-0.0484 0.404054,-0.1629 0.778454,-0.25438 l 0.680729,-0.16634 0.0011,1.15869 c 0.0013,1.35823 0.181626,4.04214 0.321322,4.78144 0.09126,0.483 0.0788,0.5318 -0.194125,0.7603 -0.362485,0.3035 -1.39621,1.0083 -1.478886,1.0083 -0.03363,0 -0.08674,-0.1103 -0.118005,-0.245 z"
           id="path6386"
           inkscape:connector-curvature="0" />
      </g>
      <path
         inkscape:connector-curvature="0"
         id="path7866"
         d="m 53.707833,918.8745 c -0.06468,-1.04519 -0.159213,-2.11527 -0.210067,-2.37796 l -0.09246,-0.47761 -2.706232,-0.0527 -2.706232,-0.0527 -0.320685,1.32583 c -0.176376,0.7292 -0.366941,1.77187 -0.423477,2.31704 l -0.102792,0.99122 2.213805,0.11292 c 1.217593,0.0621 2.720492,0.11324 3.339776,0.11363 l 1.12597,7.2e-4 -0.117605,-1.90035 z"
         style="fill:#643200;fill-opacity:1;fill-rule:nonzero;stroke:#000000;stroke-width:0.35355338;stroke-linecap:round;stroke-linejoin:round;stroke-miterlimit:4;stroke-opacity:1;stroke-dasharray:none" />
    </g>
    <g
       transform="matrix(-1,0,0,1,202.76243,279.13648)"
       id="g10601">
      <g
         transform="matrix(1.9686199,0,0,1.5509512,15.364408,-866.89752)"
         id="g5814">
        <path
           style="fill:#963200;fill-opacity:1;stroke:#000000;stroke-width:0.5;stroke-linecap:butt;stroke-linejoin:miter;stroke-miterlimit:4;stroke-opacity:1;stroke-dasharray:none"
           d="m 34.898583,998.9417 c 0.0036,6.1149 -0.89746,48.4234 -0.362492,51.385 0.7793,4.3142 0.937352,-10.8739 0.937352,-12.454 0,-4.4903 0.317218,-41.96279 0.11717,-43.07021 -0.810996,-4.48973 -0.748807,6.43201 -0.69203,7.50801"
           id="path4155-4"
           inkscape:connector-curvature="0" />
        <path
           style="fill:#c8c8d2;fill-opacity:1;stroke:#000000;stroke-width:1px;stroke-linecap:round;stroke-linejoin:round;stroke-opacity:1"
           d="m 34.167269,993.13475 c 0.77197,1.47668 -0.04951,6.0098 -1.204573,7.16485 -0.584564,0.5846 1.545599,-0.61964 2.233454,-1.07821 0.435611,-0.29041 2.110782,0.2767 2.387485,0 0.548802,-0.5488 -0.962173,-1.23121 -1.309266,-1.92539 -0.697538,-1.39508 -0.609453,-4.61427 -1.617329,-5.62214 -0.08495,-0.085 -0.224742,1.91336 -0.489771,3.46089"
           id="path5810"
           inkscape:connector-curvature="0" />
      </g>
      <path
         inkscape:transform-center-y="124.8063"
         inkscape:transform-center-x="-1.1002205"
         inkscape:connector-curvature="0"
         id="path7533-1-5"
         d="m 41.769086,755.03935 c -9.52505,9.66257 21.33894,10.96307 6.81443,2.66406 -2.21876,-1.26776 -4.65112,-2.97959 -7.53174,-3.27885"
         style="fill:#643200;fill-opacity:1;fill-rule:nonzero;stroke:#000000;stroke-width:2.34675789;stroke-linecap:round;stroke-linejoin:round;stroke-miterlimit:4;stroke-opacity:1;stroke-dasharray:none;display:inline" />
      <path
         inkscape:transform-center-y="124.74767"
         inkscape:transform-center-x="12.97737"
         inkscape:connector-curvature="0"
         id="path7533-8"
         d="m 27.691496,754.98071 c -9.52505,9.66258 21.33894,10.96307 6.81443,2.66406 -2.21876,-1.26776 -4.65112,-2.97959 -7.53174,-3.27885"
         style="fill:#643200;fill-opacity:1;fill-rule:nonzero;stroke:#000000;stroke-width:2.34675789;stroke-linecap:round;stroke-linejoin:round;stroke-miterlimit:4;stroke-opacity:1;stroke-dasharray:none;display:inline" />
      <path
         inkscape:transform-center-y="91.861581"
         inkscape:transform-center-x="6.993427"
         sodipodi:nodetypes="cssssssc"
         inkscape:connector-curvature="0"
         id="path7453-4"
         d="m 50.888246,694.05209 c -4.22243,6.79333 -20.36846,-0.84826 -24.37546,1.15523 -1.01811,0.50906 -1.5018,8.89058 -1.5018,10.28159 0,5.71421 -2.85238,50.67069 -2.54152,51.29242 0.2602,0.5204 12.11882,-0.46209 14.44044,-0.46209 4.01511,0 13.52629,2.8418 16.08098,0.2871 2.34293,-2.34293 -1.06293,-32.18842 -1.06293,-36.56147 0,-9.96266 -0.90518,-17.92811 -1.61733,-25.76174"
         style="fill:#6496ff;fill-opacity:1;stroke:#000000;stroke-width:2;stroke-linecap:round;stroke-linejoin:round;stroke-miterlimit:4;stroke-opacity:1;stroke-dasharray:none;display:inline" />
      <path
         inkscape:connector-curvature="0"
         id="path7503-0"
         d="m 52.802546,702.24053 c -0.590402,2.0448 -0.325647,3.98159 0.30503,6.41237 0.55555,2.14123 1.065851,3.5262 1.627723,5.69177 1.741215,6.71105 8.436275,7.98576 7.934965,3.52695 -0.539585,-4.79933 -2.634513,-20.83974 -9.563625,-14.31356"
         style="fill:#969696;fill-opacity:1;stroke:#000000;stroke-width:2;stroke-linecap:round;stroke-linejoin:round;stroke-miterlimit:4;stroke-opacity:1;stroke-dasharray:none;display:inline" />
      <path
         inkscape:transform-center-y="77.637089"
         inkscape:transform-center-x="24.997507"
         inkscape:connector-curvature="0"
         id="path7503-2-54"
         d="m 23.224986,701.93837 c 0.94415,1.90744 1.02755,3.86047 0.83857,6.36461 -0.16646,2.20586 -0.4227,3.65944 -0.59106,5.89036 -0.52175,6.91361 -6.88401,9.357 -7.1825,4.88003 -0.32129,-4.81886 -1.10823,-20.97634 6.86971,-15.78441"
         style="fill:#969696;fill-opacity:1;stroke:#000000;stroke-width:2;stroke-linecap:round;stroke-linejoin:round;stroke-miterlimit:4;stroke-opacity:1;stroke-dasharray:none;display:inline" />
      <path
         inkscape:transform-center-y="64.326931"
         inkscape:transform-center-x="23.746625"
         inkscape:connector-curvature="0"
         id="path7455-72"
         d="m 29.400876,693.82104 c 0.58985,2.5294 -0.56919,4.02646 -1.5018,5.8917 -1.79269,3.58538 -17.48935,7.59962 -14.67148,1.9639 1.87709,-3.75419 13.86085,-14.7929 16.63538,-6.46932"
         style="fill:#969696;fill-opacity:1;stroke:#000000;stroke-width:2;stroke-linecap:round;stroke-linejoin:round;stroke-miterlimit:4;stroke-opacity:1;stroke-dasharray:none;display:inline" />
      <path
         inkscape:transform-center-y="64.788171"
         inkscape:transform-center-x="-10.848159"
         inkscape:connector-curvature="0"
         id="path7455-8-1"
         d="m 47.946886,694.28228 c -0.58986,2.5294 0.56918,4.02646 1.5018,5.8917 1.79269,3.58538 17.48934,7.59962 14.67148,1.9639 -1.87709,-3.75419 -13.86085,-14.7929 -16.63538,-6.46932"
         style="fill:#969696;fill-opacity:1;stroke:#000000;stroke-width:2;stroke-linecap:round;stroke-linejoin:round;stroke-miterlimit:4;stroke-opacity:1;stroke-dasharray:none;display:inline" />
      <path
         inkscape:transform-center-y="88.669794"
         inkscape:transform-center-x="6.6040225"
         inkscape:connector-curvature="0"
         id="path7523-4"
         d="m 25.040666,722.6612 c 8.60407,-0.85099 18.3947,0.32675 26.95685,0.32675"
         style="fill:#969696;fill-opacity:1;fill-rule:nonzero;stroke:#000000;stroke-width:2;stroke-linecap:round;stroke-linejoin:round;stroke-miterlimit:4;stroke-opacity:1;stroke-dasharray:none;display:inline" />
      <path
         inkscape:transform-center-y="95.542616"
         inkscape:transform-center-x="6.2772675"
         inkscape:connector-curvature="0"
         id="path7525-9"
         d="m 52.814396,729.84969 c -8.12531,0.0936 -22.53585,-0.98115 -27.9371,-0.49012"
         style="fill:#969696;fill-opacity:1;fill-rule:nonzero;stroke:#000000;stroke-width:2;stroke-linecap:round;stroke-linejoin:round;stroke-miterlimit:4;stroke-opacity:1;stroke-dasharray:none;display:inline" />
      <path
         inkscape:transform-center-y="92.151616"
         inkscape:transform-center-x="7.0849227"
         inkscape:connector-curvature="0"
         id="path7527-9"
         d="m 36.640286,720.53733 c -14.33778,11.44336 12.52212,16.54875 6.04486,3.59424 -1.40362,-2.80726 -2.96097,-3.31389 -6.04486,-3.59424 z"
         style="fill:#daa520;fill-opacity:1;fill-rule:nonzero;stroke:#000000;stroke-width:2;stroke-linecap:round;stroke-linejoin:round;stroke-miterlimit:4;stroke-opacity:1;stroke-dasharray:none;display:inline" />
      <path
         inkscape:transform-center-y="91.816402"
         inkscape:transform-center-x="16.445353"
         inkscape:connector-curvature="0"
         id="path7529-0"
         d="m 25.096676,726.02087 c 0.0652,-1.1906 0.14341,-2.1906 0.17378,-2.22223 0.11217,-0.11684 3.48302,-0.33691 5.26624,-0.3438 l 1.84072,-0.007 -0.39658,0.7826 c -0.48754,0.96212 -0.78349,2.47895 -0.64845,3.32346 l 0.10103,0.63182 -3.22765,0 -3.22766,0 0.11857,-2.16472 z"
         style="fill:#643200;fill-opacity:1;fill-rule:nonzero;stroke:#000000;stroke-width:0.32674971;stroke-linecap:round;stroke-linejoin:round;stroke-miterlimit:4;stroke-opacity:1;stroke-dasharray:none;display:inline" />
      <path
         inkscape:transform-center-y="88.013232"
         inkscape:transform-center-x="-7.3640514"
         inkscape:connector-curvature="0"
         id="path7477-0"
         d="m 61.869286,715.75135 c -10.21093,13.72032 12.18747,4.99627 3.35018,0.57762 -1.57762,-0.78881 -2.78707,-0.22379 -3.4657,0.11552"
         style="fill:#969696;fill-opacity:1;stroke:#000000;stroke-width:2;stroke-linecap:round;stroke-linejoin:round;stroke-miterlimit:4;stroke-opacity:1;stroke-dasharray:none;display:inline" />
      <path
         inkscape:transform-center-y="87.176289"
         inkscape:transform-center-x="-26.066051"
         inkscape:connector-curvature="0"
         id="path7481-8"
         d="m 79.023626,719.21725 c 3.6487,-7.93609 15.14584,8.10988 -0.23105,5.31408"
         style="fill:#969696;fill-opacity:1;stroke:#000000;stroke-width:2;stroke-linecap:round;stroke-linejoin:round;stroke-miterlimit:4;stroke-opacity:1;stroke-dasharray:none;display:inline" />
      <path
         inkscape:connector-curvature="0"
         id="path7479-3"
         d="m 68.278015,719.41072 c 17.193818,-4.88279 13.470532,10.32702 -4.632595,3.49812"
         style="fill:#969696;fill-opacity:1;stroke:#000000;stroke-width:2;stroke-linecap:round;stroke-linejoin:round;stroke-miterlimit:4;stroke-opacity:1;stroke-dasharray:none;display:inline" />
      <g
         transform="matrix(1.5846914,0,0,1.7561149,-75.43178,-935.73762)"
         id="g6967">
        <path
           style="fill:#000096;fill-opacity:1;stroke:#000000;stroke-width:2;stroke-linecap:round;stroke-linejoin:round;stroke-miterlimit:4;stroke-opacity:1;stroke-dasharray:none"
           d="m 64.519789,937.17268 c -2.618617,0.1668 -8.003909,0.6499 -10.43923,3.781 -7.814924,10.0478 6.266142,22.6228 15.942238,15.7112 8.093623,-5.7812 0.932668,-21.4242 -7.503008,-19.4922"
           id="path5673"
           inkscape:connector-curvature="0" />
        <path
           style="fill:none;stroke:#000000;stroke-width:0.80000001;stroke-linecap:round;stroke-linejoin:round;stroke-miterlimit:4;stroke-opacity:1;stroke-dasharray:none"
           d="m 51.906013,947.69538 c 0.803128,0.6779 1.898686,1.0411 2.805683,0.4229 0.777891,-0.5303 1.510561,-1.8552 1.885381,-2.6217 0.06985,-0.1428 0.373087,-1.2378 0.377076,-1.2337 0.245646,0.2512 0.119095,0.7995 0.301662,1.0795 0.658518,1.0099 2.307097,2.2209 3.61993,1.7735 0.782949,-0.2669 1.681523,-0.894 2.036213,-1.6193 0.09531,-0.1949 0.330276,-0.3669 0.377076,-0.4626 0.01248,-0.025 0.124122,-0.5671 0.226245,-0.4627 0.106938,0.1094 0.119396,0.6072 0.226246,0.7711 0.679873,1.0427 2.336403,2.3525 3.770762,1.6193 0.704745,-0.3603 1.232949,-0.902 1.583721,-1.6193 0.0491,-0.1004 0.07709,-0.8482 0.15083,-0.8482 0.103648,0 0.02906,0.2137 0.07542,0.3085 0.08419,0.1721 0.314955,0.3991 0.45249,0.5397 0.969979,0.9917 2.696897,1.6154 3.654101,1.3518"
           id="path5753"
           inkscape:connector-curvature="0" />
        <path
           style="fill:none;stroke:#000000;stroke-width:1;stroke-linecap:round;stroke-linejoin:round;stroke-miterlimit:4;stroke-opacity:1;stroke-dasharray:none"
           d="m 53.135751,951.69668 c 1.895162,1.4981 2.589821,-2.1966 2.997516,-2.1966 0.236443,0 0.614102,0.7072 0.819834,0.8492 0.691249,0.4774 1.469817,0.8163 2.235909,1.0808 0.360278,0.1244 0.83457,-0.046 1.192486,0.077 1.33137,0.4597 1.718031,-0.3899 2.4595,-1.158 0.04403,-0.046 0.352802,0.4916 0.745303,0.6948 0.617678,0.3199 1.307402,0.9353 2.23591,0.6948 0.631122,-0.1634 2.814056,-1.3521 3.130273,-2.0072 0.09493,-0.1966 0.258096,-0.7126 0.521712,-0.8491 0.07897,-0.041 0.128651,0.2665 0.14906,0.3088 0.243697,0.5048 1.125294,1.2389 1.416077,1.3895 0.51065,0.2645 1.284255,0.1544 1.863258,0.1544 0.253355,0 0.98492,0.2397 0.745303,0.1544 -0.08437,-0.03 -0.126546,-0.1302 -0.189819,-0.1954"
           id="path5755"
           inkscape:connector-curvature="0" />
        <path
           style="fill:none;stroke:#000000;stroke-width:1;stroke-linecap:round;stroke-linejoin:round;stroke-miterlimit:4;stroke-opacity:1;stroke-dasharray:none"
           d="m 71.446384,955.69376 c -1.168673,0.12035 -2.725305,0.43956 -3.888087,-0.72322 -0.02005,-0.0201 -0.925785,-1.15205 -1.155234,-0.69315 -0.297158,0.59432 -1.946434,2.01405 -3.234657,1.15524 -0.553033,-0.36869 -1.641131,-0.88288 -2.079423,-1.54031 -0.01789,-0.0268 -0.120062,-0.26502 -0.231047,-0.15403 -0.324825,0.32482 -0.447715,1.06384 -1.001203,1.61732 -0.553949,0.55395 -3.066914,-0.2627 -3.619735,-0.53911 -0.508611,-0.2543 -0.301417,0.41561 -0.790614,-0.12274"
           id="path5757"
           inkscape:connector-curvature="0" />
        <path
           style="fill:#0064c8;fill-opacity:1;fill-rule:nonzero;stroke:none"
           d="m 69.452882,955.49349 c -0.729163,-0.0591 -1.211735,-0.29182 -1.809867,-0.8728 -0.796935,-0.77409 -1.083511,-0.89879 -1.367028,-0.59485 -0.666472,0.71448 -0.922386,0.93614 -1.286858,1.1146 -0.602966,0.29525 -1.013723,0.33539 -1.451272,0.14184 -0.585192,-0.25885 -1.881691,-1.15356 -2.143261,-1.47905 -0.46744,-0.58167 -0.67023,-0.50346 -1.179084,0.45472 -0.202469,0.38125 -0.437527,0.75573 -0.522351,0.83218 -0.319214,0.2877 -1.598181,0.11339 -2.996009,-0.40833 -0.290141,-0.10829 -0.635373,-0.18201 -0.80032,-0.17091 -0.26278,0.0177 -0.326579,-0.02 -0.678005,-0.40127 -0.409832,-0.44456 -1.284597,-1.59013 -1.284597,-1.68226 0,-0.0299 0.164368,-0.0983 0.365263,-0.15206 0.522421,-0.13973 0.998884,-0.66367 1.485665,-1.63369 l 0.391095,-0.77935 0.260771,0.33471 c 0.305896,0.39263 0.834352,0.72889 1.825324,1.16146 0.730915,0.31906 0.788879,0.32982 2.647031,0.49158 0.666886,0.0581 0.885635,-0.0355 1.511909,-0.6468 l 0.438924,-0.42842 0.233276,0.22807 c 0.266313,0.26037 1.213411,0.807 1.640757,0.94698 0.401367,0.13148 1.041924,0.11623 1.406965,-0.0335 1.40466,-0.5761 2.733597,-1.49289 3.076046,-2.12208 l 0.206532,-0.37947 0.249092,0.32658 c 0.346398,0.45416 1.082768,1.02952 1.499239,1.17142 0.211522,0.0721 0.618267,0.11896 1.032028,0.11896 l 0.682911,0 -0.05243,0.28881 c -0.10296,0.56714 -0.504352,1.6769 -0.823654,2.27721 -0.178551,0.33569 -0.552292,0.89206 -0.830535,1.23636 -0.472298,0.58444 -0.528563,0.62858 -0.847172,0.66453 -0.187701,0.0212 -0.583875,0.0188 -0.880385,-0.005 l 0,0 z"
           id="path5759"
           inkscape:connector-curvature="0" />
        <path
           style="fill:#0096c8;fill-opacity:1;fill-rule:nonzero;stroke:none"
           d="m 53.73329,951.67752 c -0.164814,-0.0574 -0.30486,-0.10484 -0.311213,-0.10548 -0.0064,-6.3e-4 -0.138592,-0.3044 -0.293863,-0.67504 -0.288266,-0.6881 -0.657281,-1.97465 -0.657281,-2.29157 l 0,-0.17604 0.468955,0.14596 c 0.603503,0.18783 0.963273,0.18423 1.49566,-0.015 0.737381,-0.27589 1.511736,-1.18201 2.249316,-2.63208 0.28099,-0.55241 0.310356,-0.58473 0.38491,-0.42358 0.290383,0.62766 1.529488,1.56826 2.42383,1.8399 0.917329,0.27863 1.668788,0.11068 2.655689,-0.59356 0.432894,-0.30891 0.628837,-0.52177 1.129421,-1.22694 l 0.141115,-0.19879 0.231946,0.35018 c 0.514203,0.7763 1.683585,1.56883 2.548855,1.72744 0.568339,0.10418 1.099343,0.007 1.631985,-0.2973 0.458569,-0.26237 1.155827,-0.9294 1.329517,-1.27188 0.224691,-0.44304 0.242238,-0.44605 0.626655,-0.10756 0.681992,0.60052 1.80936,1.13754 2.653926,1.26419 0.411181,0.0617 0.393272,0.0255 0.513637,1.03573 0.08633,0.72458 0.100532,1.74099 0.03025,2.16584 l -0.04581,0.27694 -0.49825,0.0161 c -0.274038,0.009 -0.688762,-0.0234 -0.921608,-0.0718 -0.361446,-0.075 -0.500749,-0.1609 -0.952565,-0.58712 -0.291063,-0.27457 -0.603561,-0.65282 -0.69444,-0.84055 -0.139172,-0.2875 -0.200518,-0.34133 -0.388928,-0.34133 -0.173787,0 -0.275349,0.0713 -0.455224,0.31961 -0.127341,0.17579 -0.23153,0.36375 -0.23153,0.41768 0,0.50422 -2.589256,2.11178 -3.401952,2.11213 -0.464784,2e-4 -1.467264,-0.50229 -2.032247,-1.01865 -0.221143,-0.20211 -0.468133,-0.36748 -0.548867,-0.36748 -0.08437,0 -0.351198,0.22831 -0.627475,0.53689 -0.587338,0.65601 -0.870177,0.7718 -1.544858,0.63244 -0.242615,-0.0501 -0.641242,-0.0911 -0.885839,-0.0911 -0.344722,0 -0.610738,-0.0694 -1.18304,-0.30849 -0.956489,-0.39966 -1.363637,-0.66654 -1.815715,-1.19018 -0.364061,-0.42169 -0.62208,-0.53094 -0.868603,-0.36778 -0.04702,0.0311 -0.288474,0.44732 -0.536565,0.92489 -0.450736,0.86765 -0.884744,1.42373 -1.169249,1.49814 -0.08299,0.0217 -0.285735,-0.008 -0.450549,-0.0649 z"
           id="path5761"
           inkscape:connector-curvature="0" />
        <path
           style="fill:#004b64;fill-opacity:1;fill-rule:nonzero;stroke:none"
           d="m 62.983568,958.07286 c -1.091571,-0.15258 -1.500656,-0.2372 -2.268533,-0.46928 -1.357529,-0.41028 -3.155523,-1.36312 -4.04675,-2.14455 -0.267169,-0.23426 -0.397513,-0.24955 1.028674,0.12067 0.969692,0.25172 1.806796,0.29804 2.152791,0.11911 0.231621,-0.11977 0.595478,-0.59491 0.861001,-1.12432 0.224795,-0.4482 0.216022,-0.44202 0.351908,-0.24802 0.134591,0.19216 1.397397,1.04745 2.07494,1.40534 0.426588,0.22534 0.506478,0.24151 1.039712,0.21053 0.746583,-0.0434 1.39145,-0.35949 2.024207,-0.99224 l 0.454533,-0.45454 0.574145,0.53619 c 0.687682,0.64222 1.169029,0.89017 1.989077,1.0246 l 0.613564,0.10058 -0.500411,0.31604 c -1.106107,0.69857 -2.386485,1.2217 -3.565406,1.45672 -0.554174,0.11048 -2.354751,0.2031 -2.783452,0.14317 z"
           id="path5765"
           inkscape:connector-curvature="0" />
      </g>
      <g
         style="stroke-width:2;stroke-miterlimit:4;stroke-dasharray:none"
         transform="matrix(1.5090732,0,0,1.4138459,-10.92842,-726.47951)"
         id="g6916">
        <path
           style="fill:none;stroke:#000000;stroke-width:2;stroke-linecap:round;stroke-linejoin:round;stroke-miterlimit:4;stroke-opacity:1;stroke-dasharray:none"
           d="M 38,5 C 35.016383,0.8917318 28.69553,2.8799108 28,6 27.548172,9.6914402 26.787133,15.205335 27,18"
           id="path6833"
           inkscape:connector-curvature="0"
           transform="translate(0,988.36218)" />
        <path
           style="fill:none;stroke:#000000;stroke-width:2;stroke-linecap:butt;stroke-linejoin:miter;stroke-miterlimit:4;stroke-opacity:1;stroke-dasharray:none"
           d="M 38,18 C 39.046679,14.130527 39.027954,6.9370398 38,5"
           id="path6847"
           inkscape:connector-curvature="0"
           transform="translate(0,988.36218)" />
        <path
           style="fill:none;stroke:#000000;stroke-width:2;stroke-linecap:round;stroke-linejoin:round;stroke-miterlimit:4;stroke-opacity:1;stroke-dasharray:none"
           d="m 27,18 c 3.625891,1.891284 8.2772,0.571246 11,0"
           id="path6849"
           inkscape:connector-curvature="0"
           transform="translate(0,988.36218)" />
        <path
           style="fill:none;stroke:#000000;stroke-width:2;stroke-linecap:round;stroke-linejoin:round;stroke-miterlimit:4;stroke-opacity:1;stroke-dasharray:none"
           d="m 38.178262,996.79695 c -0.38499,0.0516 -1.965687,0.30176 -2.663383,0.36151"
           id="path6859"
           inkscape:connector-curvature="0" />
        <path
           style="fill:none;stroke:#000000;stroke-width:2;stroke-linecap:round;stroke-linejoin:round;stroke-miterlimit:4;stroke-opacity:1;stroke-dasharray:none"
           d="m 32.837244,997.3709 c -0.482505,0.42046 -2.382045,0.0669 -2.828518,0"
           id="path6861"
           inkscape:connector-curvature="0" />
        <path
           sodipodi:type="arc"
           style="fill:#000000;fill-opacity:1;fill-rule:nonzero;stroke:none"
           id="path6866"
           sodipodi:cx="30"
           sodipodi:cy="26"
           sodipodi:rx="2"
           sodipodi:ry="2"
           d="m 32,26 c 0,1.104569 -0.895431,2 -2,2 -1.104569,0 -2,-0.895431 -2,-2 0,-1.104569 0.895431,-2 2,-2 1.104569,0 2,0.895431 2,2 z"
           transform="matrix(0.59566787,0,0,0.59566787,18.868833,985.9747)" />
        <path
           sodipodi:type="arc"
           style="fill:#000000;fill-opacity:1;fill-rule:nonzero;stroke:none"
           id="path6866-7"
           sodipodi:cx="30"
           sodipodi:cy="26"
           sodipodi:rx="2"
           sodipodi:ry="2"
           d="m 32,26 c 0,1.104569 -0.895431,2 -2,2 -1.104569,0 -2,-0.895431 -2,-2 0,-1.104569 0.895431,-2 2,-2 1.104569,0 2,0.895431 2,2 z"
           transform="matrix(0.59566787,0,0,0.59566787,15.791817,986.1889)" />
        <path
           sodipodi:type="arc"
           style="fill:#000000;fill-opacity:1;fill-rule:nonzero;stroke:none"
           id="path6866-6"
           sodipodi:cx="30"
           sodipodi:cy="26"
           sodipodi:rx="2"
           sodipodi:ry="2"
           d="m 32,26 c 0,1.104569 -0.895431,2 -2,2 -1.104569,0 -2,-0.895431 -2,-2 0,-1.104569 0.895431,-2 2,-2 1.104569,0 2,0.895431 2,2 z"
           transform="matrix(0.59566787,0,0,0.59566787,12.790614,986.34413)" />
        <path
           sodipodi:type="arc"
           style="fill:#000000;fill-opacity:1;fill-rule:nonzero;stroke:none"
           id="path6866-1"
           sodipodi:cx="30"
           sodipodi:cy="26"
           sodipodi:rx="2"
           sodipodi:ry="2"
           d="m 32,26 c 0,1.104569 -0.895431,2 -2,2 -1.104569,0 -2,-0.895431 -2,-2 0,-1.104569 0.895431,-2 2,-2 1.104569,0 2,0.895431 2,2 z"
           transform="matrix(0.59566787,0,0,0.59566787,13.022864,989.49817)" />
        <path
           sodipodi:type="arc"
           style="fill:#000000;fill-opacity:1;fill-rule:nonzero;stroke:none"
           id="path6866-4"
           sodipodi:cx="30"
           sodipodi:cy="26"
           sodipodi:rx="2"
           sodipodi:ry="2"
           d="m 32,26 c 0,1.104569 -0.895431,2 -2,2 -1.104569,0 -2,-0.895431 -2,-2 0,-1.104569 0.895431,-2 2,-2 1.104569,0 2,0.895431 2,2 z"
           transform="matrix(0.59566787,0,0,0.59566787,16.097473,989.34413)" />
        <path
           sodipodi:type="arc"
           style="fill:#000000;fill-opacity:1;fill-rule:nonzero;stroke:none"
           id="path6866-2"
           sodipodi:cx="30"
           sodipodi:cy="26"
           sodipodi:rx="2"
           sodipodi:ry="2"
           d="m 32,26 c 0,1.104569 -0.895431,2 -2,2 -1.104569,0 -2,-0.895431 -2,-2 0,-1.104569 0.895431,-2 2,-2 1.104569,0 2,0.895431 2,2 z"
           transform="matrix(0.59566787,0,0,0.59566787,18.87124,988.96146)" />
        <path
           style="fill:#9696a0;fill-opacity:1;fill-rule:nonzero;stroke:none"
           d="m 30.295266,18.38557 c -0.79843,-0.09023 -1.648864,-0.291535 -2.241206,-0.530503 l -0.513266,-0.207065 0.007,-1.345782 c 0.0093,-1.798436 0.275686,-4.631255 0.86984,-9.2516548 0.162684,-1.2651003 0.31411,-1.6460267 0.884085,-2.2239963 0.985506,-0.9993294 2.406944,-1.560795 3.976748,-1.5708077 1.070013,-0.00682 1.509109,0.091419 2.443889,0.5467991 0.914942,0.4457157 1.695132,1.1821513 1.936866,1.8282443 0.161758,0.4323367 0.442102,1.7943926 0.381751,1.8547434 -0.01814,0.018138 -0.660839,0.1180864 -1.428226,0.2221081 -1.451396,0.1967415 -1.581797,0.2329162 -1.830586,0.507826 -0.210924,0.2330674 -0.21041,0.9259 8.61e-4,1.1629048 0.326584,0.3663622 0.536896,0.392188 1.822327,0.2237769 0.648193,-0.084923 1.27384,-0.1740242 1.390326,-0.1980022 l 0.211793,-0.043596 -4.62e-4,1.6427014 c -4.62e-4,1.605584 -0.175672,4.215251 -0.297705,4.433311 -0.04814,0.08602 -0.09027,0.06535 -0.196141,-0.09623 -0.201819,-0.308015 -0.753637,-0.526124 -1.172271,-0.463346 -0.444845,0.06671 -0.914974,0.497015 -0.992085,0.90805 -0.113671,0.605917 0.199822,1.222393 0.734171,1.443728 0.317315,0.131436 0.887154,0.05528 1.174167,-0.156915 l 0.234869,-0.173647 -0.05035,0.251732 c -0.02769,0.138453 -0.05035,0.278953 -0.05035,0.312222 0,0.113005 -2.759517,0.677908 -4.081829,0.835595 -0.969031,0.115557 -2.579403,0.159546 -3.214241,0.0878 l 2.4e-5,0 z m 1.083126,-0.646097 c 0.796671,-0.33287 0.987799,-1.385766 0.359968,-1.983008 -0.516441,-0.491278 -1.200632,-0.485288 -1.700812,0.01489 -0.951184,0.951184 0.09599,2.488249 1.340844,1.968116 l 0,0 z m 3.080626,-0.154031 c 0.793159,-0.331402 0.982828,-1.351297 0.366009,-1.968117 -0.50018,-0.500179 -1.184371,-0.506169 -1.700812,-0.01489 -0.975174,0.927661 0.08633,2.504653 1.334803,1.983008 z m -3.26533,-3.011316 c 1.007518,-0.521008 0.875309,-1.953957 -0.210288,-2.27921 -1.118123,-0.334997 -2.020024,1.04369 -1.267668,1.937814 0.362147,0.430386 1.014478,0.58107 1.477956,0.341396 z m 3.142172,-0.245173 c 0.393045,-0.29345 0.52142,-0.544759 0.52142,-1.02074 0,-0.364142 -0.03754,-0.492403 -0.210468,-0.719125 -0.741888,-0.972665 -2.296247,-0.395803 -2.192036,0.81352 0.03585,0.416001 0.210497,0.696682 0.599718,0.963819 0.215625,0.147991 0.335213,0.174306 0.67,0.14743 0.242366,-0.01946 0.490137,-0.09439 0.611366,-0.184904 z m 3.03319,-0.195357 c 0.331462,-0.186292 0.608464,-0.65763 0.605673,-1.030595 -0.005,-0.662349 -0.55581,-1.206454 -1.221415,-1.206454 -0.684237,0 -1.161025,0.424212 -1.221247,1.086578 -0.0902,0.992047 0.954615,1.646392 1.836989,1.150471 z M 33.221126,9.8891623 C 33.882758,9.5002416 33.980049,8.8129731 33.445313,8.3054907 33.153154,8.0282222 33.10381,8.0239955 32.085192,8.1889848 c -0.169174,0.027402 -0.753179,0.00439 -1.297789,-0.051139 -0.915794,-0.093374 -1.009252,-0.0907 -1.243753,0.035588 -0.498627,0.2685283 -0.631259,0.9921716 -0.266775,1.4555368 0.281273,0.3575808 1.079342,0.5090044 2.576795,0.4889144 0.94538,-0.01268 1.021624,-0.02544 1.367456,-0.2287224 l 0,0 z"
           id="path6914"
           inkscape:connector-curvature="0"
           transform="translate(0,988.36218)" />
      </g>
      <path
         inkscape:connector-curvature="0"
         id="path7862"
         d="m 51.41215,728.38042 c 0.001,-0.18906 -0.06569,-1.24898 -0.148224,-2.35538 l -0.150057,-2.01164 -3.623288,-0.0814 c -1.992809,-0.0448 -3.64164,-0.0631 -3.664068,-0.0407 -0.02243,0.0224 0.0936,0.37369 0.25783,0.78057 0.416995,1.03309 0.733408,2.55945 0.681902,3.28948 l -0.04343,0.61551 0.4375,0.0723 c 0.240625,0.0398 1.745313,0.0729 3.34375,0.0737 l 2.90625,10e-4 0.0018,-0.34375 z"
         style="fill:#643200;fill-opacity:1;fill-rule:nonzero;stroke:#000000;stroke-width:0.25;stroke-linecap:round;stroke-linejoin:round;stroke-miterlimit:4;stroke-opacity:1;stroke-dasharray:none" />
    </g>
  </g>
</svg>
